<svg width="23" height="30" viewBox="0 0 23 30" fill="none" xmlns="http://www.w3.org/2000/svg">
<path d="M13.125 7.96875V0H1.40625C0.626953 0 0 0.626953 0 1.40625V28.5938C0 29.373 0.626953 30 1.40625 30H21.0938C21.873 30 22.5 29.373 22.5 28.5938V9.375H14.5312C13.7578 9.375 13.125 8.74219 13.125 7.96875ZM17.6045 20.3531L11.9549 25.9605C11.5652 26.3479 10.9359 26.3479 10.5463 25.9605L4.89668 20.3531C4.30195 19.7631 4.71914 18.75 5.55586 18.75H9.375V14.0625C9.375 13.5445 9.79453 13.125 10.3125 13.125H12.1875C12.7055 13.125 13.125 13.5445 13.125 14.0625V18.75H16.9441C17.7809 18.75 18.198 19.7631 17.6045 20.3531ZM22.0898 6.15234L16.3535 0.410156C16.0898 0.146484 15.7324 0 15.3574 0H15V7.5H22.5V7.14258C22.5 6.77344 22.3535 6.41602 22.0898 6.15234Z" fill="#0BD906"/>
</svg>
