<svg width="51" height="49" viewBox="0 0 51 49" fill="none" xmlns="http://www.w3.org/2000/svg">
<path d="M22.5553 0.174923C10.8442 1.43854 1.42438 10.7893 0.151434 22.1618C-1.12152 34.0398 5.75241 44.6541 16.1906 48.6977C16.9544 48.9504 17.7181 48.445 17.7181 47.4341V43.3905C17.7181 43.3905 16.6998 43.6432 15.4268 43.6432C11.8626 43.6432 10.335 40.6106 10.0804 38.8415C9.82585 37.8306 9.31667 37.0725 8.5529 36.3143C7.78913 36.0616 7.53454 36.0616 7.53454 35.8088C7.53454 35.3034 8.29831 35.3034 8.5529 35.3034C10.0804 35.3034 11.3534 37.0725 11.8626 37.8306C13.1355 39.8524 14.6631 40.3578 15.4268 40.3578C16.4452 40.3578 17.209 40.1051 17.7181 39.8524C17.9727 38.0833 18.7365 36.3143 20.264 35.3034C14.4085 34.0398 10.0804 30.7544 10.0804 25.1945C10.0804 22.4145 11.3534 19.6346 13.1355 17.6128C12.8809 17.1074 12.6263 15.8437 12.6263 14.0747C12.6263 13.0638 12.6263 11.5475 13.3901 10.0311C13.3901 10.0311 16.9544 10.0311 20.5186 13.3165C21.7916 12.8111 23.5737 12.5583 25.3558 12.5583C27.138 12.5583 28.9201 12.8111 30.4476 13.3165C33.7573 10.0311 37.5761 10.0311 37.5761 10.0311C38.0853 11.5475 38.0853 13.0638 38.0853 14.0747C38.0853 16.0965 37.8307 17.1074 37.5761 17.6128C39.3583 19.6346 40.6312 22.1618 40.6312 25.1945C40.6312 30.7544 36.3032 34.0398 30.4476 35.3034C31.9752 36.567 32.9935 38.8415 32.9935 41.116V47.6868C32.9935 48.445 33.7573 49.2031 34.7757 48.9504C44.1955 45.1596 50.8148 36.0616 50.8148 25.4472C50.8148 10.2838 37.8307 -1.59414 22.5553 0.174923Z" fill="white"/>
</svg>
