<svg width="46" height="46" viewBox="0 0 46 46" fill="none" xmlns="http://www.w3.org/2000/svg">
<path d="M22.9 0C10.2535 0 0 10.2535 0 22.9C0 35.5465 10.2535 45.8 22.9 45.8C35.5465 45.8 45.8 35.5465 45.8 22.9C45.8 10.2535 35.5465 0 22.9 0ZM14.3049 10.3107C15.9117 10.3107 16.9823 11.3813 16.9823 12.8087C16.9823 14.2362 15.9117 15.3067 14.1274 15.3067C12.5206 15.3086 11.45 14.2362 11.45 12.8087C11.45 11.3813 12.5206 10.3107 14.3049 10.3107ZM17.175 32.4417H11.45V17.175H17.175V32.4417ZM36.2583 32.4417H30.8692V24.0984C30.8692 21.7913 29.4322 21.2588 28.8941 21.2588C28.3559 21.2588 26.5583 21.6138 26.5583 24.0984C26.5583 24.4534 26.5583 32.4417 26.5583 32.4417H20.9917V17.175H26.5602V19.3047C27.2777 18.0624 28.7147 17.175 31.4093 17.175C34.1038 17.175 36.2583 19.3047 36.2583 24.0984V32.4417Z" fill="white"/>
</svg>
