<svg width="39" height="39" viewBox="0 0 39 39" fill="none" xmlns="http://www.w3.org/2000/svg">
<path d="M37.326 21.8685C37.4295 21.0915 37.5 20.304 37.5 19.5C37.5 9.5595 29.4405 1.5 19.5 1.5C18.696 1.5 17.9085 1.5705 17.1315 1.674C15.4185 0.6195 13.4085 0 11.25 0C5.037 0 0 5.037 0 11.25C0 13.4085 0.6195 15.4185 1.674 17.1315C1.5705 17.9085 1.5 18.696 1.5 19.5C1.5 29.4405 9.5595 37.5 19.5 37.5C20.304 37.5 21.0915 37.4295 21.8685 37.326C23.5815 38.3805 25.5915 39 27.75 39C33.963 39 39 33.963 39 27.75C39 25.5915 38.3805 23.5815 37.326 21.8685ZM19.7235 30C13.8795 30 10.524 26.937 10.524 23.931C10.524 22.398 12.129 21.9075 12.771 21.9075C14.2545 21.9075 14.748 23.118 15.018 23.673C16.5255 26.772 17.9745 26.364 19.4025 26.499C20.664 26.6175 23.625 26.061 23.625 23.898C23.625 23.691 23.9505 22.284 21.3945 21.5865C19.761 21.1395 16.881 20.592 14.511 19.68C12.282 18.822 10.974 17.055 10.974 14.778C10.974 13.6395 11.5575 9 19.4505 9C24.7185 9 27.5265 11.6985 27.5265 14.073C27.5265 14.619 27.318 15.1005 26.8995 15.534C26.481 15.9675 25.302 16.602 24.0105 15.7755C23.685 15.567 23.4165 15.1335 23.0955 14.571C22.7085 13.8645 22.0755 12.4995 19.161 12.4995C16.3335 12.4995 15.549 13.848 15.549 14.4105C15.549 16.3005 19.1565 16.698 20.1255 16.9485C23.6625 17.8605 28.4745 18.699 28.4745 23.4675C28.4745 28.9425 22.7775 30 19.7235 30Z" fill="white"/>
</svg>
